<?xml version="1.0" encoding="UTF-8"?><svg id="Layer_1" xmlns="http://www.w3.org/2000/svg" viewBox="0 0 528.82 528.82"><defs><style>.cls-1{stroke:#fff;stroke-width:1.58px;}.cls-1,.cls-2{stroke-miterlimit:10;}.cls-2{fill:none;stroke:#000;stroke-width:3.99px;}</style></defs><path d="M344.67,226.01s.11.09,0,0l-55.42,57.13c-9.1,9.38-15.96,20.71-20.05,33.12h0s-6.78,0-6.78,0h0c-.04-.12-.08-.25-.12-.37-5.71-17.15-15.85-32.5-29.1-44.8l-51.87-48.21v78.94l45.49,60.6v132.86h74.04v-132.86l43.82-58.38v-78.04Z"/><path class="cls-1" d="M344.67,226.01v269.28h2.83c39.33,0,71.21-31.88,71.21-71.21v-228.9c0-31.39-4.82-58.39-14.43-80.99l-59.61,111.83Z"/><path class="cls-1" d="M110.11,195.17v228.9c0,39.33,31.88,71.21,71.21,71.21h0V222.88l-57.3-107.49c-9.28,22.36-13.92,48.95-13.92,79.79Z"/><path d="M263.28,102.48c25.44,0,45.3,8.44,59.59,25.34l36.88-69.03c-24.61-16.84-56.38-25.26-95.33-25.26s-68.3,7.79-92.5,23.38l35.04,66.4c13.82-13.89,32.6-20.83,56.33-20.83Z"/><path class="cls-1" d="M379.14,75.35c-5.88-6.21-12.35-11.73-19.4-16.56l-36.88,69.03c.11.13.22.25.32.38,14.32,17.14,21.48,40.98,21.48,71.5v26.31l59.61-111.83c-6.31-14.83-14.68-27.78-25.13-38.83Z"/><path class="cls-1" d="M202.52,128.2c1.41-1.72,2.89-3.34,4.43-4.89l-35.04-66.4c-8.17,5.26-15.58,11.41-22.24,18.44-10.73,11.35-19.28,24.69-25.65,40.03l57.3,107.49v-22.05c0-31.28,7.06-55.49,21.19-72.63Z"/><path class="cls-2" d="M265.84,316.26s26.51-49.68-8.43-112.11c-24.54-43.84,5.87-101.67,5.87-101.67"/><path class="cls-2" d="M268.41,226.21s24.78-18.16,22.36-57.12c-1.7-27.36,26.93-48.61,26.93-48.61"/><path class="cls-2" d="M275,282.48s6.21-38.92,36.31-52.87c22.04-10.21,17.23-44.9,17.23-44.9"/><path class="cls-2" d="M202.62,194.36s30.94,15.7,36.32,48.43c3.93,23.97,35.15,45.61,35.15,45.61"/><path class="cls-2" d="M212.61,153.01s2.75,7.14-3.43,20.33c-6.03,12.87,2.96,27.28,2.96,27.28"/><path d="M247.51,153.52c-6.4-.69-15.67-4.16-18.29-24.59-.07-.53.4-.95.89-.77,4.65,1.74,21.88,9.31,17.97,24.85-.07.27-.3.54-.58.51Z"/><path d="M252.49,132.47c.69-6.4,4.16-15.67,24.59-18.29.53-.07.95.4.77.89-1.74,4.65-9.31,21.88-24.85,17.97-.27-.07-.54-.3-.51-.58Z"/><path d="M260.98,212.64c-5.53,3.29-15.03,6.09-29.39-8.68-.37-.38-.25-1,.25-1.15,4.76-1.4,23.09-5.7,29.29,9.07.11.26.09.61-.15.75Z"/><path d="M252.82,192.44c-3.29-5.53-6.09-15.03,8.68-29.39.38-.37,1-.25,1.15.25,1.4,4.76,5.7,23.09-9.07,29.29-.26.11-.61.09-.75-.15Z"/><path d="M222.05,209.3c-5.3-3.64-11.82-11.1-4.42-30.33.19-.49.8-.65,1.15-.25,3.26,3.73,14.84,18.58,4.02,30.4-.19.21-.52.33-.75.18Z"/><path d="M207.63,175.74c-3.38-1.43-7.86-4.86-5.92-16.43.05-.3.37-.45.61-.27,2.25,1.71,10.4,8.69,5.7,16.52-.08.14-.25.25-.4.18Z"/><path d="M212.36,153.43c-3.44-2.36-7.67-7.2-2.87-19.67.12-.32.52-.42.75-.16,2.12,2.42,9.63,12.05,2.61,19.72-.12.13-.34.22-.49.11Z"/><path d="M291.01,179.47c-1.83-6.17-2.2-16.06,15.64-26.36.46-.26,1.03,0,1.05.53.19,4.96-.15,23.78-16,26.16-.28.04-.61-.07-.69-.33Z"/><path d="M275.24,264.91c-6.28,1.4-16.18,1.08-25.2-17.44-.23-.48.07-1.03.6-1.02,4.96.16,23.71,1.81,24.98,17.79.02.28-.11.61-.38.67Z"/><path d="M234.36,230.2c-6.04,2.21-15.9,3.2-27.28-13.96-.29-.44-.06-1.03.46-1.09,4.93-.5,23.74-1.34,27.11,14.34.06.27-.03.62-.29.71Z"/><path d="M203.42,195.33c-3.8,1.39-10.01,2.02-17.18-8.79-.18-.28-.04-.65.29-.68,3.11-.31,14.95-.84,17.07,9.03.04.17-.02.39-.18.45Z"/><path d="M328.54,185.94c-6.27-1.43-15.08-5.96-15.29-26.56,0-.53.51-.9.98-.66,4.41,2.27,20.65,11.8,14.94,26.78-.1.26-.36.5-.63.44Z"/><path d="M325.37,212.01c-6.27-1.43-15.08-5.96-15.29-26.56,0-.53.51-.9.98-.66,4.41,2.27,20.65,11.8,14.94,26.78-.1.26-.36.5-.63.44Z"/><path d="M290.29,162.82c-6.27-1.43-15.08-5.96-15.29-26.56,0-.53.51-.9.98-.66,4.41,2.27,20.65,11.8,14.94,26.78-.1.26-.36.5-.63.44Z"/><path d="M284.63,203.19c-6.27-1.43-15.08-5.96-15.29-26.56,0-.53.51-.9.98-.66,4.41,2.27,20.65,11.8,14.94,26.78-.1.26-.36.5-.63.44Z"/><path d="M306.62,232.35c-5.99-2.34-14.04-8.12-11.21-28.52.07-.52.63-.82,1.06-.51,4.03,2.89,18.68,14.71,10.84,28.69-.14.24-.43.44-.69.34Z"/><path d="M320.11,221.91c2.39-4.12,7.52-9.36,22.12-5,.38.11.53.56.25.84-2.57,2.62-12.86,12.01-22.2,4.7-.16-.13-.28-.36-.17-.54Z"/><path d="M298.84,142.5c2.39-4.12,7.52-9.36,22.12-5,.38.11.53.56.25.84-2.57,2.62-12.86,12.01-22.2,4.7-.16-.13-.28-.36-.17-.54Z"/><path d="M239.58,242.55c-1.9-4.26-3.12-11.32,8.71-20.42.3-.23.74-.1.81.28.61,3.54,2.16,17.09-8.99,20.31-.19.06-.45.01-.53-.17Z"/><path d="M291.94,245.71c2.96-5.71,9.55-13.1,29.54-8.15.51.13.75.72.39,1.11-3.3,3.7-16.6,17.03-29.67,7.76-.23-.16-.4-.47-.27-.72Z"/><path d="M304.5,134.44c-4.53-1.47-10.72-5.38-9.53-20.58.03-.39.43-.63.76-.42,3.1,1.96,14.45,10.05,9.26,20.72-.09.19-.3.35-.49.28Z"/><path d="M243.14,256.41c-4.26,1.9-11.32,3.12-20.42-8.71-.23-.3-.1-.74.28-.81,3.54-.61,17.09-2.16,20.31,8.99.06.19.01.45-.17.53Z"/><path d="M211.7,166.41c.94-3.55,3.69-8.47,15.42-8.2.3,0,.5.31.36.57-1.38,2.47-7.12,11.53-15.54,7.99-.15-.06-.28-.21-.24-.37Z"/><path d="M272.64,246.04c-1.4-6.28-1.08-16.18,17.44-25.2.48-.23,1.03.07,1.02.6-.16,4.96-1.81,23.71-17.79,24.98-.28.02-.61-.11-.67-.38Z"/></svg>